<svg width="1280" height="174" viewBox="0 0 1280 174" fill="none" xmlns="http://www.w3.org/2000/svg">
<path fill-rule="evenodd" clip-rule="evenodd" d="M0 0L82.8125 6.51644C167.188 13.0329 332.812 26.0658 500 48.1214C667.188 70.6783 832.812 102.759 1000 109.276C1167.19 115.792 1332.81 96.2428 1500 90.2276C1667.19 83.7112 1832.81 90.2276 1917.19 93.2352L2000 96.2428V173.438H1917.19C1832.81 173.438 1667.19 173.438 1500 173.438C1332.81 173.438 1167.19 173.438 1000 173.438C832.812 173.438 667.188 173.438 500 173.438C332.812 173.438 167.188 173.438 82.8125 173.438H0V0Z" fill="#20DF7F" fill-opacity="0.8"/>
</svg>
