<svg width="1280" height="174" viewBox="0 0 1280 174" fill="none" xmlns="http://www.w3.org/2000/svg">
<path fill-rule="evenodd" clip-rule="evenodd" d="M0 69.375L66.6667 83.25C133.333 97.125 266.667 124.875 400 117.938C533.333 111 666.667 69.375 800 41.625C933.333 13.875 1066.67 0 1200 0C1333.33 0 1466.67 13.875 1600 38.1562C1733.33 62.4375 1866.67 97.125 1933.33 114.469L2000 131.812V173.438H1933.33C1866.67 173.438 1733.33 173.438 1600 173.438C1466.67 173.438 1333.33 173.438 1200 173.438C1066.67 173.438 933.333 173.438 800 173.438C666.667 173.438 533.333 173.438 400 173.438C266.667 173.438 133.333 173.438 66.6667 173.438H0V69.375Z" fill="#224957" fill-opacity="0.8"/>
</svg>
